<svg width="512" height="512" version="1.1" viewBox="0 0 135.47 135.47" xmlns="http://www.w3.org/2000/svg">
  <circle cx="67.733" cy="67.733" r="67.733" style="fill:#000000"/>
  <g style="fill:#ffffff;stroke-width:.62934" aria-label="R">
    <path d="m95.106 96.874q0 2.2285-3.0037 2.2285-0.29068 0-1.8894-0.09689-1.5503-0.09689-2.2285-0.09689-0.38757 0-1.7441 0.04845-1.3081 0.09689-2.1317 0.09689-2.9552 0-5.7167-3.8273l-14.776-20.638q-2.2285-3.1006-2.2285-3.2459 0-0.7267 2.713-1.6956 1.7925-0.58136 3.5851-1.2112 8.139-4.0211 8.139-14.776 0-5.4745-4.3602-9.3987-4.2149-3.7304-9.7862-3.7304-5.3776 0-5.3776 2.8584 0 3.5366-0.19379 7.7999-0.33913 7.4608-0.33913 24.03 0 2.1317 0.14534 6.3465 0.14534 4.2149 0.14534 6.3465 0 3.0521 2.4223 4.8931 0.43602 0.38757 4.4086 2.3739 2.4223 1.2112 2.4223 2.7615 0 1.6472-2.2285 1.6472-1.6956 0-5.0385-0.48447-3.3428-0.43602-5.0385-0.43602-1.7925 0-5.2807 0.38757-3.4397 0.43602-5.1353 0.43602-2.2285 0-2.2285-1.6472 0-1.0174 1.9863-2.2285 2.8584-1.7441 3.7304-2.6161 1.9863-2.0348 1.9863-4.99 0-3.2459 0.19379-9.7378 0.19379-6.5403 0.19379-9.7862 0-3.6335-0.19379-9.4955-0.24223-7.4608-0.29068-9.544-0.14534-6.6372-3.3913-8.4297-3.3913-1.8894-3.3913-2.5192 0-2.6161 3.1006-2.6161 1.5987 0 4.7478 0.58136 3.149 0.53291 4.7478 0.53291 1.9863 0 6.0074-0.19379 4.0695-0.24223 6.0558-0.24223 7.6546 0 12.596 3.7304 5.5229 4.118 5.5229 11.53 0 6.9279-3.8757 12.354-3.7788 5.1838-10.319 7.8484 0.62981 0.82359 1.9379 2.4223 0.92049 1.405 4.8447 7.0732 0.38757 0.53291 4.7478 6.5887 1.3565 1.8894 3.3913 3.5366 2.8099 2.3254 4.7478 2.3254 5.6683 0 5.6683 2.9068z"/>
  </g>
</svg>
